<?xml version="1.0" encoding="utf-8"?>
<!-- Generator: Adobe Illustrator 19.1.0, SVG Export Plug-In . SVG Version: 6.00 Build 0)  -->
<svg version="1.1" id="Layer_1" xmlns="http://www.w3.org/2000/svg" xmlns:xlink="http://www.w3.org/1999/xlink" x="0px" y="0px"
	 viewBox="0 0 595.3 841.9" style="enable-background:new 0 0 595.3 841.9;" xml:space="preserve">
<path d="M438.5,336h-69v-24c0-12.1-9.9-22-22-22h-116c-12.1,0-22,9.9-22,22v24h-69c-16.5,0-30,13.5-30,30v162c0,16.5,13.5,30,30,30
	h109.7l66.4-222h-87.1v-24c0-1.1,0.9-2,2-2h116c1.1,0,2,0.9,2,2v24h-14.1L269,558h169.5c16.5,0,30-13.5,30-30V366
	C468.5,349.4,455,336,438.5,336z M250.5,427.1L196,450.9v0.3l54.4,23.8V491l-72-33.4v-12.9l72-33.4V427.1z M400.5,458l-72,33v-15.9
	l55.6-23.8v-0.3l-55.6-23.8v-15.9l72,33V458z"/>
<path d="M250.2,558"/>
</svg>
