<?xml version="1.0" encoding="utf-8"?>
<!-- Generator: Adobe Illustrator 19.1.0, SVG Export Plug-In . SVG Version: 6.00 Build 0)  -->
<svg version="1.1" id="Layer_1" xmlns="http://www.w3.org/2000/svg" xmlns:xlink="http://www.w3.org/1999/xlink" x="0px" y="0px"
	 viewBox="120 235.9 356 292" style="enable-background:new 120 235.9 356 292;" xml:space="preserve">
<style type="text/css">
	.st0{fill:none;}
</style>
<g>
	<path class="st0" d="M449,308.9H149c-1.6,0-3,1.4-3,3v190c0,1.6,1.4,3,3,3h300c1.6,0,3-1.4,3-3v-190
		C452,310.3,450.6,308.9,449,308.9z M271.1,385.9l-51.3,19.6l51.3,20.4v20.7l-73.6-32v-17.7l73.6-31.9V385.9z M293.1,460.7h-15.2
		l26.6-111H320L293.1,460.7z M400.5,414.6l-73.7,32.1V426l51.4-20.2l-51.4-20v-20.6l73.7,31.9V414.6z"/>
	<path class="st0" d="M355.5,258.9h-113c-1.6,0-3,1.4-3,3v29h119v-29C358.5,260.3,357.1,258.9,355.5,258.9z"/>
	<path d="M358.5,290.9h-119 M221.5,290.9H149c-11.6,0-21,9.4-21,21v190c0,11.6,9.4,21,21,21h300c11.6,0,21-9.4,21-21v-190
		c0-11.6-9.4-21-21-21h-72.5 M452,501.9c0,1.6-1.4,3-3,3H149c-1.6,0-3-1.4-3-3v-190c0-1.6,1.4-3,3-3h300c1.6,0,3,1.4,3,3V501.9z"/>
	<path d="M376.5,290.9v-29c0-11.6-9.4-21-21-21h-113c-11.6,0-21,9.4-21,21v29h18v-29c0-1.6,1.4-3,3-3h113c1.6,0,3,1.4,3,3v29H376.5z
		"/>
	<polygon points="197.5,414.6 271.1,446.6 271.1,425.9 219.8,405.5 271.1,385.9 271.1,365 197.5,396.9 	"/>
	<polygon points="277.9,460.7 293.1,460.7 320,349.7 304.5,349.7 	"/>
	<polygon points="326.8,385.8 378.2,405.8 326.8,426 326.8,446.7 400.5,414.6 400.5,397.1 326.8,365.2 	"/>
</g>
</svg>
